<?xml version="1.0" standalone="no"?>
<!DOCTYPE svg PUBLIC "-//W3C//DTD SVG 20010904//EN"
 "http://www.w3.org/TR/2001/REC-SVG-20010904/DTD/svg10.dtd">
<svg version="1.0" xmlns="http://www.w3.org/2000/svg"
 width="500.000000pt" height="500.000000pt" viewBox="0 0 500.000000 500.000000"
 preserveAspectRatio="xMidYMid meet">
<metadata>
Created by potrace 1.14, written by Peter Selinger 2001-2017
</metadata>
<g transform="translate(0.000000,500.000000) scale(0.100000,-0.100000)"
fill="#000000" stroke="none">
<path d="M2452 3798 c-67 -121 -104 -268 -105 -418 0 -150 25 -233 108 -360
16 -25 33 -48 38 -51 4 -3 18 -19 30 -36 12 -17 47 -62 77 -99 59 -73 65 -82
134 -184 90 -134 158 -292 181 -415 7 -42 7 -142 0 -190 -20 -129 -83 -229
-190 -303 -46 -31 -150 -54 -240 -54 -136 0 -238 42 -315 129 -53 60 -73 100
-94 186 -38 151 -7 314 93 497 55 102 78 140 98 166 12 17 23 34 23 37 0 3 25
42 55 86 30 44 55 84 55 88 0 5 -10 19 -23 33 -30 33 -90 127 -110 170 -33 74
-45 129 -55 249 l-7 84 -30 -44 c-32 -47 -89 -127 -105 -146 -5 -6 -17 -24
-27 -40 -10 -15 -56 -80 -103 -143 -91 -123 -131 -181 -167 -245 -222 -388
-291 -741 -197 -1015 22 -65 76 -175 93 -190 4 -3 18 -21 32 -40 39 -52 147
-154 218 -206 123 -89 313 -169 451 -188 47 -7 229 -8 290 -2 76 8 220 55 305
100 226 120 391 305 458 516 71 219 52 452 -58 747 -49 131 -109 247 -210 409
-31 49 -215 311 -252 359 -5 6 -26 34 -47 64 -21 30 -43 59 -48 65 -5 6 -42
58 -83 116 -41 58 -82 114 -90 125 -9 11 -44 59 -78 107 -34 48 -65 88 -69 88
-3 0 -19 -24 -36 -52z"/>
</g>
</svg>
